<svg xmlns="http://www.w3.org/2000/svg" viewBox="339.9 445.56 320.22 108.89"><path fill="#fff" d="M440.524 480.865q-1.953-.67-3.938-1.245.33-1.341.612-2.693c2.98-14.473 1.033-26.137-5.63-29.979-6.385-3.682-16.825.16-27.371 9.339q-1.56 1.357-3.044 2.793-.995-.958-2.022-1.873c-11.057-9.807-22.14-13.936-28.792-10.094-6.37 3.693-8.259 14.66-5.587 28.378q.41 2.038.904 4.054c-1.559.447-3.075.92-4.523 1.426-12.957 4.523-21.231 11.6-21.231 18.943 0 7.583 8.886 15.192 22.38 19.795q1.64.564 3.31 1.043-.542 2.166-.958 4.363c-2.564 13.478-.564 24.185 5.8 27.856 6.567 3.789 17.592-.106 28.335-9.493q1.277-1.107 2.554-2.352 1.607 1.56 3.3 3.023c10.408 8.95 20.677 12.557 27.03 8.886 6.572-3.805 8.706-15.304 5.934-29.293q-.32-1.596-.735-3.267 1.16-.34 2.278-.708c14.032-4.65 23.157-12.169 23.157-19.853 0-7.375-8.54-14.5-21.763-19.05zm-32.884-20.63c9.035-7.865 17.48-10.962 21.337-8.748 4.097 2.363 5.683 11.893 3.108 24.392q-.25 1.224-.548 2.432a125.248 125.248 0 0 0-16.368-2.586 122.811 122.811 0 0 0-10.35-12.915q1.373-1.32 2.81-2.575zm-31.608 45.942q1.666 3.214 3.475 6.332 1.846 3.193 3.842 6.295a111.328 111.328 0 0 1-11.281-1.809 117.819 117.819 0 0 1 3.97-10.812zm0-12.291a114.888 114.888 0 0 1-3.884-10.59 117.117 117.117 0 0 1 11.089-1.904q-1.947 3.033-3.751 6.172-1.81 3.118-3.46 6.322zm2.778 6.15q2.416-5.028 5.215-9.865 2.777-4.842 5.927-9.444a147.235 147.235 0 0 1 22.306 0q3.113 4.602 5.896 9.418 2.799 4.82 5.279 9.817-2.448 5.045-5.258 9.908-2.783 4.832-5.874 9.472a169.392 169.392 0 0 1-22.285.042q-3.171-4.63-5.98-9.487-2.8-4.842-5.226-9.866zm43.899 12.452q1.841-3.208 3.544-6.492a111.035 111.035 0 0 1 4.108 10.77 110.956 110.956 0 0 1-11.414 1.943q1.937-3.076 3.757-6.226zm3.49-18.597q-1.692-3.214-3.511-6.364-1.799-3.097-3.725-6.12c3.9.495 7.641 1.15 11.158 1.953a111.53 111.53 0 0 1-3.921 10.536zm-25.051-27.33a111.812 111.812 0 0 1 7.205 8.695q-7.226-.345-14.463 0a114.483 114.483 0 0 1 7.263-8.694zm-28.18-14.925c4.097-2.368 13.142 1.011 22.688 9.488a66.382 66.382 0 0 1 1.836 1.692 125.285 125.285 0 0 0-10.43 12.909 127.749 127.749 0 0 0-16.324 2.538q-.468-1.873-.841-3.778v.01c-2.304-11.76-.777-20.624 3.07-22.848zm-5.982 64.082q-1.516-.436-3.011-.942a44.293 44.293 0 0 1-14.282-7.588 10.802 10.802 0 0 1-4.56-7.279c0-4.454 6.64-10.137 17.719-13.994q2.091-.735 4.214-1.33a125.392 125.392 0 0 0 5.96 15.452 127.291 127.291 0 0 0-6.034 15.676zm28.34 23.839a44.282 44.282 0 0 1-13.701 8.567 10.802 10.802 0 0 1-8.578.33c-3.858-2.235-5.465-10.824-3.278-22.35q.394-2.048.894-4.064a122.939 122.939 0 0 0 16.496 2.383 127.228 127.228 0 0 0 10.504 12.984q-1.14 1.101-2.331 2.144zm5.97-5.917a116.745 116.745 0 0 1-7.364-8.812q3.512.138 7.163.138 3.74 0 7.385-.16a111.18 111.18 0 0 1-7.183 8.834zm31.752 7.273a10.802 10.802 0 0 1-4.007 7.599c-3.858 2.235-12.105-.67-21.002-8.322q-1.527-1.31-3.076-2.8a122.864 122.864 0 0 0 10.26-13.025 122.045 122.045 0 0 0 16.574-2.554q.373 1.51.66 2.958a44.272 44.272 0 0 1 .586 16.15zm4.438-26.11c-.676.223-1.363.436-2.065.638a122.705 122.705 0 0 0-6.194-15.5 122.651 122.651 0 0 0 5.96-15.272c1.245.357 2.464.745 3.634 1.144 11.334 3.896 18.241 9.664 18.241 14.101 0 4.736-7.466 10.877-19.582 14.889z"/><path fill="#fff" d="M401.095 488.985a10.93 10.93 0 1 1-10.93 10.919 10.93 10.93 0 0 1 10.93-10.914M521.404 527.946l-13.222-19.986c6.686-.587 12.71-5.434 12.71-14.253 0-9.037-6.39-14.77-15.356-14.77H485.85v49.009h6.096v-19.47h9.772l12.49 19.47zm-16.6-24.833h-12.856v-18.738h12.856c5.803 0 9.769 3.82 9.769 9.332s-3.966 9.406-9.77 9.406zm39.306 25.711c5.807 0 10.58-1.906 14.108-5.434l-2.646-3.602c-2.795 2.866-6.906 4.484-10.946 4.484-7.642 0-12.344-5.583-12.785-12.269h28.724v-1.397c0-10.651-6.316-19.03-17.041-19.03-10.14 0-17.49 8.304-17.49 18.589 0 11.095 7.568 18.663 18.073 18.663zm11.021-20.864h-23.29c.292-5.434 4.04-11.828 11.608-11.828 8.083 0 11.608 6.54 11.682 11.831zm42.027 19.986v-24.392c0-8.599-6.244-11.978-13.74-11.978-5.804 0-10.36 1.91-14.18 5.879l2.572 3.82c3.158-3.38 6.614-4.923 10.874-4.923 5.143 0 8.962 2.718 8.962 7.493v6.394c-2.866-3.307-6.906-4.85-11.756-4.85-6.025 0-12.415 3.748-12.415 11.682 0 7.717 6.39 11.757 12.415 11.757 4.776 0 8.819-1.69 11.756-4.922v4.037zm-15.284-3.087c-5.142 0-8.741-3.23-8.741-7.714 0-4.555 3.602-7.788 8.741-7.788 3.894 0 7.642 1.47 9.772 4.41v6.686c-2.13 2.937-5.878 4.41-9.772 4.41zm41.953 3.969c6.465 0 10.287-2.646 13.005-6.174l-3.674-3.378c-2.35 3.158-5.363 4.627-9.036 4.627-7.568 0-12.27-5.876-12.27-13.738 0-7.863 4.702-13.664 12.27-13.664 3.673 0 6.685 1.395 9.036 4.627l3.674-3.378c-2.718-3.528-6.54-6.174-13.005-6.174-10.58 0-17.707 8.084-17.707 18.589 0 10.58 7.127 18.663 17.707 18.663zm29.686 0c3.23 0 5.214-.957 6.611-2.28l-1.617-4.114c-.736.807-2.205 1.472-3.749 1.472-2.422 0-3.602-1.913-3.602-4.556V497.31h7.205v-4.85h-7.205v-9.699h-5.508v9.698h-5.876v4.85h5.876v23.216c0 5.291 2.645 8.304 7.862 8.304z"/></svg>
